<svg width="70" height="70" viewBox="0 0 70 70" fill="none" xmlns="http://www.w3.org/2000/svg">
<rect x="1" y="1" width="68" height="68" fill="white" stroke="black" stroke-width="2"/>
<path d="M30.8834 45.08L30.8534 31.16L23.9534 42.68H22.2134L15.3134 31.34V45.08H11.5934V24.08H14.8034L23.1434 38L31.3334 24.08H34.5434L34.5734 45.08H30.8834Z" fill="black"/>
<path d="M42.29 33.54C41.33 35.62 40.85 37.48 40.85 39.12C40.85 42.5 42.01 44.57 44.33 45.33C45.01 45.51 45.7 45.6 46.4 45.6C47.12 45.6 47.84 45.51 48.56 45.33C50 44.95 51.29 44.38 52.43 43.62C53.57 42.86 54.29 42.13 54.59 41.43C55.39 39.57 56.25 38.64 57.17 38.64C57.63 38.64 57.94 38.9 58.1 39.42C58.18 39.62 58.2 39.84 58.16 40.08C57.96 41.64 57.53 43.19 56.87 44.73C56.21 46.25 55.28 48 54.08 49.98C56.48 50 58.67 50.26 60.65 50.76C61.07 50.86 61.28 51 61.28 51.18C61.28 51.4 60.99 51.44 60.41 51.3C59.03 50.94 57.04 50.76 54.44 50.76C54.2 50.76 53.94 50.76 53.66 50.76C52.44 52.52 50.81 54.07 48.77 55.41C46.75 56.77 44.78 57.7 42.86 58.2C41.8 58.48 40.9 58.62 40.16 58.62C39.42 58.62 38.8 58.53 38.3 58.35C36.84 57.81 36.11 57.1 36.11 56.22C36.11 55.96 36.18 55.68 36.32 55.38C36.86 54.18 38.28 53.07 40.58 52.05C42.32 51.27 44.15 50.74 46.07 50.46C48.01 50.18 50.18 50.02 52.58 49.98C54.06 47.48 55.07 45.02 55.61 42.6L55.73 42.09C54.77 43.01 53.68 43.83 52.46 44.55C51.26 45.25 50.21 45.74 49.31 46.02C47.87 46.48 46.68 46.71 45.74 46.71C44.82 46.71 44.01 46.58 43.31 46.32C42.03 45.88 40.99 45 40.19 43.68C39.33 42.28 38.9 40.61 38.9 38.67C38.9 36.73 39.41 34.65 40.43 32.43C39.11 31.07 38.45 29.63 38.45 28.11C38.45 26.57 39.07 25.11 40.31 23.73C40.55 23.47 40.72 23.38 40.82 23.46C40.94 23.52 40.9 23.69 40.7 23.97C39.8 25.17 39.35 26.38 39.35 27.6C39.35 29 39.87 30.31 40.91 31.53C41.03 31.27 41.25 30.88 41.57 30.36C43.13 27.8 45.25 25.84 47.93 24.48C50.03 23.4 52.06 22.86 54.02 22.86C54.56 22.86 55.1 22.9 55.64 22.98C58.22 23.38 59.96 24.44 60.86 26.16C61.22 26.84 61.4 27.58 61.4 28.38C61.4 29.16 61.15 30 60.65 30.9C59.53 32.84 57.57 34.2 54.77 34.98C53.29 35.4 51.78 35.61 50.24 35.61C47 35.61 44.35 34.92 42.29 33.54ZM54.71 23.79C52.99 23.79 51.17 24.37 49.25 25.53C46.43 27.21 44.24 29.62 42.68 32.76C43.62 33.48 44.7 33.99 45.92 34.29C47.16 34.59 48.15 34.74 48.89 34.74C53.11 34.74 56.3 33.61 58.46 31.35C59.54 30.19 60.08 29.03 60.08 27.87C60.08 26.03 59.05 24.79 56.99 24.15C56.23 23.91 55.47 23.79 54.71 23.79ZM37.64 56.43C37.64 56.99 38.12 57.37 39.08 57.57C39.4 57.65 39.75 57.69 40.13 57.69C41.55 57.69 43.35 57.18 45.53 56.16C48.29 54.9 50.48 53.11 52.1 50.79C50 50.85 48.16 51.01 46.58 51.27C44.3 51.61 42.13 52.44 40.07 53.76C38.45 54.8 37.64 55.69 37.64 56.43Z" fill="black"/>
</svg>
