<svg width="34" height="30" viewBox="0 0 34 30" fill="none" xmlns="http://www.w3.org/2000/svg">
<path d="M12.58 1.20001C9.3959 1.20001 6.79999 3.49052 6.79999 6.30001C6.79999 8.28019 8.12594 9.95573 10.0021 10.8C8.12594 11.6443 6.79999 13.3198 6.79999 15.3C6.79999 17.2802 8.12594 18.9557 10.0021 19.8C8.12594 20.6443 6.79999 22.3198 6.79999 24.3C6.79999 27.1095 9.3959 29.4 12.58 29.4C15.7641 29.4 18.36 27.1095 18.36 24.3V19.8V17.7938C19.2721 19.321 21.0338 20.4 23.12 20.4C26.1164 20.4 28.56 18.2439 28.56 15.6C28.56 13.427 26.8778 11.6572 24.6261 11.0695C26.8964 10.381 28.56 8.53215 28.56 6.30001C28.56 3.49052 25.9641 1.20001 22.78 1.20001H17.68H12.58ZM12.58 2.40001H17V10.2H12.58C10.131 10.2 8.15999 8.46092 8.15999 6.30001C8.15999 4.1391 10.131 2.40001 12.58 2.40001ZM18.36 2.40001H22.78C25.229 2.40001 27.2 4.1391 27.2 6.30001C27.2 8.46092 25.229 10.2 22.78 10.2H18.36V2.40001ZM12.58 11.4H17V19.2H12.58C10.131 19.2 8.15999 17.4609 8.15999 15.3C8.15999 13.1391 10.131 11.4 12.58 11.4ZM18.36 11.4H20.6337C19.658 11.8537 18.8742 12.5453 18.36 13.4063V11.4ZM23.12 12C25.3814 12 27.2 13.6047 27.2 15.6C27.2 17.5953 25.3814 19.2 23.12 19.2C20.8586 19.2 19.04 17.5953 19.04 15.6C19.04 13.6047 20.8586 12 23.12 12ZM12.58 20.4H17V24.3C17 26.4609 15.029 28.2 12.58 28.2C10.131 28.2 8.15999 26.4609 8.15999 24.3C8.15999 22.1391 10.131 20.4 12.58 20.4Z" fill="black"/>
</svg>
