<svg width="34" height="30" viewBox="0 0 34 30" fill="none" xmlns="http://www.w3.org/2000/svg">
<path fill-rule="evenodd" clip-rule="evenodd" d="M17 0C7.61205 0 0 6.88429 0 15.3825C0 22.1797 4.87232 27.939 11.6268 29.9748C12.4768 30.1154 12.7879 29.64 12.7879 29.2315C12.7879 28.8631 12.7728 27.8988 12.7652 26.613C8.03705 27.5439 7.03527 24.5504 7.03527 24.5504C6.26116 22.7758 5.14554 22.3003 5.14554 22.3003C3.60491 21.3426 5.25938 21.3627 5.25938 21.3627C6.96696 21.4699 7.8625 22.9499 7.8625 22.9499C9.38036 25.3004 11.8393 24.6241 12.8107 24.229C12.9625 23.2378 13.4027 22.5548 13.8884 22.173C10.1165 21.7846 6.14732 20.4654 6.14732 14.5722C6.14732 12.8913 6.80759 11.5185 7.89286 10.447C7.7183 10.0586 7.13393 8.49152 8.05982 6.37534C8.05982 6.37534 9.48661 5.96014 12.7348 7.94908C14.0933 7.60754 15.5429 7.44012 16.9924 7.43343C18.4344 7.44012 19.8915 7.60754 21.25 7.94908C24.4982 5.96014 25.9174 6.37534 25.9174 6.37534C26.8433 8.49152 26.2589 10.0586 26.0844 10.447C27.1696 11.5252 27.8299 12.898 27.8299 14.5722C27.8299 20.4788 23.8531 21.7779 20.0661 22.1597C20.6732 22.6351 21.2196 23.5727 21.2196 25.0058C21.2196 27.0617 21.1969 28.7225 21.1969 29.2248C21.1969 29.6333 21.5004 30.1154 22.3656 29.9614C29.1353 27.9323 34 22.173 34 15.3825C34 6.88429 26.3879 0 17 0Z" fill="black"/>
</svg>
