<svg width="44" height="45" viewBox="0 0 44 45" fill="none" xmlns="http://www.w3.org/2000/svg">
<path d="M42.2914 6.58955L31.9789 0.402052C31.9325 0.374552 31.8809 0.360802 31.8311 0.338459C31.1487 -0.0706039 30.267 0.00330242 29.7015 0.608302L15.2314 16.1131L7.25637 8.80158C6.73043 8.32033 5.96043 8.21549 5.32621 8.53174L1.18231 10.6028C0.695901 10.8452 0.35387 11.3006 0.259339 11.8352C0.164808 12.3697 0.324651 12.9163 0.694183 13.3116L9.26903 22.5L0.694183 31.6885C0.324651 32.0838 0.163089 32.632 0.259339 33.1649C0.355589 33.6977 0.69762 34.1549 1.18231 34.3972L5.32621 36.47C5.57028 36.5921 5.83324 36.6505 6.09449 36.6505C6.48809 36.6505 6.87996 36.5147 7.19621 36.2517L15.582 29.2633L29.7015 44.3917C30.0401 44.7544 30.499 44.9383 30.9579 44.9383C31.2725 44.9383 31.575 44.8231 31.8517 44.6513C31.8929 44.6306 31.9376 44.6221 31.9771 44.598L42.2896 38.4105C42.807 38.1011 43.125 37.5408 43.125 36.9375V8.06252C43.125 7.45924 42.807 6.89893 42.2914 6.58955ZM5.85731 32.8916L4.77621 32.3519L11.6186 25.0197L13.2307 26.7471L5.85731 32.8916ZM29.375 39.0035L4.77621 12.6481L5.80574 12.1342L29.375 33.7406V39.0035ZM29.375 29.076L22.9142 23.1531L29.375 17.77V29.076ZM29.375 13.2944L20.3567 20.8088L17.7665 18.4335L29.375 5.99658V13.2944ZM39.6875 35.963L32.8125 40.088V4.91033L39.6875 9.03533V35.963Z" fill="black"/>
</svg>
