<svg width="33" height="33" viewBox="0 0 33 33" fill="none" xmlns="http://www.w3.org/2000/svg">
<path d="M25.0877 2.64001C24.799 2.63743 24.5412 2.82048 24.4509 3.09633L21.169 13.2H11.831L8.54905 3.09633C8.46139 2.83079 8.21647 2.64774 7.93546 2.64001C7.65444 2.63485 7.40178 2.80501 7.30124 3.06798L3.34639 13.6228C3.34381 13.6228 3.34381 13.6254 3.34124 13.628L1.36124 18.908C1.25811 19.1864 1.35092 19.4984 1.59327 19.6737L16.1081 30.2285L16.1107 30.2337C16.1133 30.2337 16.1133 30.2337 16.1133 30.2363C16.121 30.2414 16.1313 30.2466 16.139 30.2517C16.1494 30.2569 16.1571 30.2646 16.1674 30.2698C16.17 30.2698 16.17 30.2723 16.1726 30.2723C16.1726 30.2723 16.1751 30.2749 16.1777 30.2749C16.1803 30.2775 16.1829 30.2801 16.188 30.2801C16.1906 30.2827 16.1958 30.2852 16.1983 30.2878C16.2112 30.293 16.2267 30.3007 16.2422 30.3059C16.2422 30.3059 16.2422 30.3059 16.2422 30.3084C16.2576 30.3136 16.2731 30.3188 16.286 30.3239C16.2886 30.3239 16.2886 30.3239 16.2912 30.3265C16.3015 30.3291 16.3118 30.3316 16.3247 30.3368C16.3298 30.3368 16.335 30.3394 16.3427 30.3394C16.3427 30.342 16.3427 30.342 16.3427 30.3394C16.3556 30.3445 16.3685 30.3471 16.3814 30.3497C16.3994 30.3523 16.4149 30.3548 16.433 30.3574C16.4587 30.3574 16.4871 30.36 16.5129 30.36C16.5387 30.3574 16.5619 30.3574 16.5851 30.3523C16.5954 30.3523 16.6031 30.3523 16.6134 30.3497C16.6134 30.3497 16.616 30.3497 16.6186 30.3497C16.6237 30.3471 16.6263 30.3471 16.6315 30.3471C16.634 30.3471 16.6366 30.3445 16.6418 30.3445C16.6469 30.342 16.6547 30.342 16.6598 30.3394C16.6701 30.3368 16.6779 30.3342 16.6856 30.3316C16.6908 30.3316 16.6933 30.3316 16.6959 30.3291C16.6985 30.3291 16.7011 30.3291 16.7037 30.3291C16.714 30.3239 16.7269 30.3188 16.7372 30.3162C16.7501 30.311 16.7604 30.3059 16.7707 30.3007C16.7733 30.3007 16.7733 30.3007 16.7758 30.2981C16.7784 30.2981 16.781 30.2981 16.7836 30.2956C16.7887 30.293 16.7939 30.2904 16.799 30.2878C16.8145 30.2801 16.8274 30.2723 16.8403 30.2646C16.8455 30.262 16.848 30.2595 16.8506 30.2569C16.8532 30.2569 16.8558 30.2543 16.8583 30.2543C16.8687 30.2466 16.879 30.2414 16.8893 30.2337L16.8944 30.2259L31.4093 19.6737C31.649 19.4984 31.7419 19.1864 31.6387 18.908L29.6639 13.646C29.6613 13.6409 29.6587 13.6331 29.6587 13.628L25.6987 3.06798C25.6008 2.81274 25.361 2.64258 25.0877 2.64001ZM7.87616 5.29805L10.444 13.2H4.91389L7.87616 5.29805ZM25.1238 5.29805L28.0887 13.2H22.556L25.1238 5.29805ZM5.32381 14.52H10.8719L14.7365 26.4103L5.32381 14.52ZM12.2615 14.52H20.7384L16.5 27.5653L12.2615 14.52ZM22.128 14.52H27.6762L18.2634 26.4103L22.128 14.52ZM4.16624 15.1852L12.9937 26.3356L2.77405 18.9028L4.16624 15.1852ZM28.8337 15.1852L30.2259 18.9028L20.0062 26.3356L28.8337 15.1852Z" fill="black"/>
</svg>
