<svg width="42" height="42" viewBox="0 0 42 42" fill="none" xmlns="http://www.w3.org/2000/svg">
<path d="M1 0C0.734792 2.65169e-05 0.480453 0.105392 0.292922 0.292922C0.105392 0.480453 2.65169e-05 0.734792 0 1V41C2.65169e-05 41.2652 0.105392 41.5195 0.292922 41.7071C0.480453 41.8946 0.734792 42 1 42H41C41.2652 42 41.5195 41.8946 41.7071 41.7071C41.8946 41.5195 42 41.2652 42 41V1C42 0.734792 41.8946 0.480453 41.7071 0.292922C41.5195 0.105392 41.2652 2.65169e-05 41 0H1ZM2 2H40V40H2V2ZM11 19V22.4453H16V38H20V22.4453H25V19H11ZM32.6914 19.0098C29.5768 18.9974 26.0176 19.9412 26.0176 24.3242C26.0176 30.0542 33.7383 30.0556 33.7383 32.6406C33.7383 32.8856 33.8422 34.666 31.1172 34.666C28.3922 34.666 26.1211 32.9531 26.1211 32.9531V37.1113C26.1211 37.1113 38.002 40.9541 38.002 32.2891C38.001 26.6641 30.209 26.9454 30.209 24.1504C30.209 23.0674 30.9784 22.0547 33.1094 22.0547C35.2404 22.0547 37.127 23.3125 37.127 23.3125L37.2676 19.6074C37.2676 19.6074 35.1139 19.0194 32.6914 19.0098Z" fill="black"/>
</svg>
